<?xml version="1.0" encoding="UTF-8"?>
<svg id="_Слой_2" data-name="Слой 2" xmlns="http://www.w3.org/2000/svg" viewBox="0 0 590.82 879.58">
  <g id="Logos">
    <g>
      <path d="M556.52,289.08c-.83-6.2-1.75-12.33-2.77-18.37-2.04-12.1-4.47-23.88-7.28-35.35-1.4-5.73-2.9-11.38-4.49-16.94-11.12-38.95-26.73-73.76-46.19-103.54-2.78-4.25-5.63-8.4-8.57-12.45-5.87-8.09-12.04-15.76-18.51-22.98-3.24-3.61-6.54-7.12-9.92-10.5-6.75-6.78-13.79-13.1-21.09-18.95-3.65-2.93-7.37-5.73-11.15-8.42C388.72,14.73,344.37,0,295.41,0s-93.32,14.73-131.15,41.58c-3.78,2.68-7.5,5.49-11.15,8.42-7.31,5.85-14.34,12.17-21.09,18.95-3.38,3.39-6.69,6.89-9.92,10.5-6.46,7.22-12.64,14.89-18.51,22.98-2.94,4.05-5.79,8.19-8.57,12.45-19.46,29.77-35.06,64.59-46.19,103.54-1.59,5.56-3.08,11.22-4.48,16.94-2.81,11.47-5.24,23.25-7.28,35.35-1.02,6.05-1.95,12.18-2.77,18.37-2.48,18.6-4.06,37.86-4.69,57.72-.21,6.62-.32,13.3-.32,20.06,0,40.5,3.85,78.71,11.13,114.06,3.64,17.68,8.14,34.64,13.45,50.82,1.77,5.4,3.63,10.7,5.58,15.91,15.58,41.73,36.79,77.72,62.64,106.62,9.7,10.84,20.05,20.68,31.01,29.45,7.3,5.85,14.88,11.22,22.7,16.1,35.21,21.96,75.54,33.9,119.61,33.9s84.4-11.94,119.61-33.9c7.82-4.88,15.39-10.25,22.7-16.1,10.96-8.78,21.31-18.62,31.01-29.45,25.86-28.9,47.06-64.89,62.64-106.62,1.95-5.21,3.81-10.52,5.58-15.91,5.31-16.18,9.81-33.15,13.46-50.82,7.28-35.36,11.13-73.56,11.13-114.06,0-6.75-.1-13.44-.32-20.06-.64-19.86-2.22-39.12-4.69-57.72ZM234.55,467.78c-1.32-2.63-2.67-5.25-3.97-7.88-5.67-11.48-10.7-23.34-15.28-35.37-4.82-12.66-9.09-25.6-12.69-38.73-1.76-6.44-3.4-12.92-4.84-19.45-.8-3.56-1.77-12.2-2.48-15.79-.47-2.41-.4-5.09-3.21-5.04-2.41.05-6.9-.14-7.26,3.07-.38,3.38.6,12.46.83,15.86.24,3.54.51,7.08.84,10.61,1.28,13.54,3.18,27.01,5.66,40.35,4.1,22.02,9.91,43.49,16.94,64.62,1.57,4.7,3.32,9.34,5.05,13.98,4.37,11.71,16.46,42.26,12.55,53.95-.73,2.19-3.14,3.33-5.3,3.24-2.7-.12-4.21-2.33-5.8-4.39-8.27-10.73-16.02-22.02-23.09-33.7-13.58-22.41-24.26-46.77-31.3-72.47-3.5-12.77-6.11-25.82-8-38.97-.95-6.62-1.73-13.27-2.36-19.93-.19-2.07-.37-4.16-.54-6.24-.11-1.41.08-3.23-.35-4.56-.6-1.87-1.85-1.81-3.39-1.81-1.22,0-2.89-.35-4.06.1-2.33.88-1.52,5.67-1.57,7.71-.18,7.19-.19,14.38,0,21.57.35,13.51,1.39,27.01,3.3,40.37,3.95,27.58,11.64,54.44,22.6,79.7,10.58,24.38,23.93,47.19,38.19,69.23,3.08,4.74,15.37,25.39,6.1,29.85-2.54,1.22-4.54-.49-6.38-2.33-2.35-2.33-4.67-4.71-6.95-7.12-4.56-4.82-8.97-9.79-13.23-14.91-16.9-20.3-31.62-42.84-43.35-67.03-11.92-24.6-20.9-51.01-26.37-78.14-2.68-13.35-4.5-26.93-5.64-40.53-.21-2.4.05-4.91-2.63-5.17-1.3-.13-2.9-.11-4.19.06-2.8.38-2.26,3.11-2.29,5.57-.03,3.51,0,7.02.06,10.52,1.06,56.32,15.74,111.43,41.77,160.19,6.32,11.84,13.25,23.28,20.75,34.29,2.06,3.03,4.16,6.01,6.31,8.96,1.64,2.25,3.36,4.44,4.48,7.06,1.22,2.83,2.3,7.81-1.52,8.96-3.92,1.19-8.25-3.71-11.03-6.05-3.35-2.82-6.63-5.74-9.81-8.78-6.61-6.3-12.83-13.06-18.66-20.2-24.79-30.39-44.19-66.54-53.32-105.55C28.69,281.85,107.42,63.84,268.78,33.69c8.17-1.03,16.5-1.57,25-1.57,13.82,0,27.19,1.43,40.1,4.15,10.39,2.19,17.79,11.6,17.74,22.21v.15c-.09,10.98-.95,21.95-2.21,32.84-3.03,26.04-8.25,51.75-14.26,77.16-12.94,54.65-29.46,108.26-45.95,161.76-1.13,3.68-2.27,7.37-3.4,11.05-.9,2.92-1.54,6.33-3.01,8.99-1.9,3.42-5.39,4-8.54,2.32-7.45-3.95-11.82-14.61-13.97-22.69-1.71-6.46-2.01-13.22-2.38-19.89-.42-7.4-.67-14.82-.74-22.23-.15-14.79.38-29.59,1.61-44.31,1-12.01,2.24-24.11,4.52-35.92.92-4.78,1.9-9.55,2.88-14.31.52-2.53,1.05-5.06,1.58-7.6.34-1.58,1.48-4.23.29-5.63-.83-.96-2.52-1.28-3.6-1.72-1.3-.53-2.61-1.26-3.72.12-.77.95-1.07,2.63-1.48,3.81-.6,1.7-1.17,3.41-1.72,5.12-4.22,13.05-7.68,26.39-10.58,39.86-12.2,56.8-14.48,116.6-6.13,174.24,1.06,7.26,2.27,14.51,3.62,21.72,1.14,6.04,10.63,46.41-2.92,49.47-3.58.81-5.45-2.03-6.95-5ZM322.04,700.05c-8.17,1.03-16.51,1.57-25,1.57-13.81,0-27.19-1.43-40.1-4.15-10.39-2.19-17.79-11.6-17.73-22.21v-.15c.08-10.98.95-21.94,2.21-32.84,3.03-26.05,8.25-51.75,14.27-77.17,12.94-54.65,29.46-108.26,45.94-161.76,1.13-3.68,2.27-7.36,3.4-11.05.9-2.92,1.54-6.33,3.01-9,1.9-3.42,5.4-3.99,8.54-2.32,7.45,3.95,11.83,14.61,13.98,22.69,1.71,6.46,2,13.22,2.38,19.89.43,7.4.67,14.82.74,22.23.15,14.79-.38,29.59-1.6,44.31-1,12.01-2.25,24.11-4.53,35.93-.93,4.78-1.9,9.55-2.89,14.31-.52,2.53-1.05,5.07-1.59,7.6-.34,1.59-1.47,4.24-.28,5.64.82.96,2.52,1.28,3.6,1.72,1.3.54,2.61,1.25,3.72-.12.77-.95,1.06-2.63,1.47-3.81.6-1.7,1.17-3.4,1.72-5.12,4.22-13.05,7.68-26.39,10.58-39.85,12.2-56.8,14.48-116.6,6.13-174.24-1.05-7.27-2.26-14.51-3.62-21.72-1.14-6.04-10.63-46.41,2.93-49.47,3.58-.81,5.44,2.03,6.94,5,1.32,2.63,2.67,5.25,3.97,7.88,5.66,11.48,10.71,23.34,15.28,35.37,4.82,12.67,9.08,25.6,12.69,38.74,1.77,6.44,3.4,12.92,4.85,19.45.79,3.56,1.76,12.2,2.47,15.79.48,2.42.4,5.09,3.22,5.04,2.41-.04,6.9.15,7.26-3.06.38-3.39-.6-12.47-.83-15.86-.24-3.55-.52-7.09-.85-10.61-1.28-13.54-3.18-27.01-5.66-40.35-4.1-22.02-9.92-43.49-16.94-64.62-1.57-4.7-3.32-9.34-5.05-13.98-4.37-11.71-16.47-42.26-12.55-53.95.73-2.19,3.14-3.33,5.3-3.24,2.7.12,4.2,2.33,5.79,4.39,8.28,10.73,16.02,22.02,23.1,33.7,13.58,22.41,24.25,46.77,31.29,72.47,3.5,12.77,6.12,25.81,8.01,38.97.95,6.62,1.73,13.27,2.35,19.93.19,2.07.37,4.15.54,6.23.11,1.42-.08,3.23.35,4.57.6,1.87,1.85,1.81,3.39,1.81,1.22,0,2.88.34,4.06-.1,2.33-.88,1.52-5.67,1.57-7.71.18-7.19.19-14.38,0-21.57-.35-13.51-1.39-27.01-3.3-40.37-3.95-27.58-11.63-54.43-22.6-79.7-10.58-24.38-23.93-47.19-38.19-69.23-3.08-4.74-15.37-25.39-6.1-29.85,2.54-1.22,4.53.49,6.38,2.33,2.35,2.34,4.67,4.71,6.95,7.13,4.56,4.82,8.96,9.78,13.23,14.9,16.9,20.31,31.62,42.84,43.35,67.04,11.92,24.6,20.9,51.01,26.37,78.14,2.68,13.35,4.5,26.92,5.64,40.53.21,2.4-.05,4.91,2.63,5.17,1.3.12,2.9.1,4.19-.07,2.8-.38,2.26-3.11,2.29-5.57.03-3.51,0-7.02-.05-10.52-1.06-56.32-15.74-111.43-41.78-160.19-6.31-11.84-13.25-23.29-20.75-34.29-2.06-3.02-4.17-6.01-6.32-8.96-1.64-2.25-3.35-4.44-4.47-7.06-1.22-2.83-2.3-7.81,1.52-8.96,3.92-1.18,8.25,3.71,11.03,6.05,3.35,2.82,6.63,5.75,9.81,8.79,6.6,6.3,12.83,13.06,18.66,20.19,24.78,30.39,44.19,66.54,53.32,105.55,50.45,215.6-28.27,433.61-189.63,463.76Z"/>
      <g>
        <path d="M36.1,862.75h-8.86v-45.8c0-1.84-1.55-3.34-3.45-3.34H3.34c-1.84,0-3.34,1.5-3.34,3.34v8.24c0,1.84,1.5,3.34,3.34,3.34h8.97s0,34.32,0,34.32H3.34c-1.87,0-3.34,1.47-3.34,3.34v8.13c0,1.84,1.5,3.34,3.34,3.34h32.76c1.84,0,3.34-1.5,3.34-3.34v-8.13c0-1.9-1.5-3.45-3.34-3.45Z"/>
        <path d="M103.27,820.94c-3.86-4.21-8.41-6.75-13.91-7.76-2.56-.51-5.46-.69-9.12-.57-3.39.12-6.17.59-8.73,1.48-5.93,1.98-10.3,5.42-13.36,10.51-3.04,4.95-4.75,11.2-5.08,18.58-.32,7.04.62,13.52,2.81,19.28,2.38,6.23,6.18,10.82,11.3,13.67,4.1,2.29,8.91,3.44,14.33,3.44,1.09,0,2.2-.05,3.34-.14,6.55-.45,12.02-2.6,16.27-6.39h0c4.35-3.9,7.3-9.5,8.75-16.67,1.27-6.24,1.42-12.63.45-19.02-1.13-6.89-3.5-12.41-7.05-16.41ZM95.07,845.23c.11,3.41-.22,6.54-.96,9.32-.7,2.92-1.92,5.36-3.51,7.06-1.71,1.81-3.93,2.94-6.59,3.34-5.74.71-10.13-1.51-12.69-6.42-.91-1.82-1.57-3.93-2-6.42-.43-3.25-.54-6.36-.32-9.47.33-3.68,1.01-6.61,2.01-8.72,1.12-2.54,2.72-4.37,4.88-5.61,1.78-.98,3.85-1.47,6.17-1.47.4,0,.81.01,1.23.04,2.64.2,4.9,1.13,6.71,2.74h0c1.66,1.46,2.93,3.6,3.9,6.49.78,2.67,1.17,5.73,1.17,9.12Z"/>
        <path d="M210.03,863.69l-7.21-5.13c-.79-.64-1.63-.95-2.46-.86-.57.05-1.42.32-2.22,1.29-2.46,2.56-5.34,4.23-8.56,4.97h-.39c-5.95,1.18-11.38-.4-15.28-4.45-4.38-4.54-6.12-11.59-4.53-18.38,1.98-8.12,8.23-13.37,15.9-13.37,4.79.11,8.83,1.82,12.37,5.26,1.43,1.29,3.02,1.42,4.37.38l7.81-6.05c.65-.51,1.05-1.29,1.11-2.14.06-.91-.27-1.8-.88-2.4-6.13-6.8-14.38-10.18-24.65-10.09-9.51,0-17.64,3.19-24.17,9.5-6.46,6.34-9.73,14.37-9.73,23.85s3.24,17.69,9.62,23.96c6.41,6.3,14.33,9.5,23.51,9.5,10.74,0,19.48-3.81,25.98-11.31.52-.59.76-1.38.68-2.22-.09-.91-.54-1.75-1.28-2.32Z"/>
        <path d="M268.65,812.29c-9-.46-16.95,1.94-23.53,7.08l-.39.26c-8.12,6.32-12.78,15.84-12.78,26.12,0,9.45,3.35,17.48,9.96,23.86,6.73,6.39,14.77,9.49,24.6,9.49s18.01-3.23,24.59-9.58c6.43-5.89,10.12-14.67,10.11-24.09,0-9.23-3.57-17.77-9.77-23.43-6.22-6-13.9-9.27-22.8-9.71ZM283.4,845.76c0,9.18-5.78,16.23-14.4,17.56-5.26.84-10.47-.96-14.29-4.98-4.14-4.35-5.84-10.5-4.56-16.45v-.02c1.58-8.3,8.15-13.87,16.36-13.87,4.77,0,8.79,1.71,11.97,5.1,3.31,3.52,4.92,7.67,4.92,12.67Z"/>
        <path d="M370.69,813.61h-44.96c-1.84,0-3.34,1.5-3.34,3.34v57.27c0,1.9,1.5,3.45,3.34,3.45h8.14c2,0,3.34-1.79,3.34-3.45v-20.95h25.35c1.4,0,2.48-.7,3.07-2.06.23-.7.27-6.27.27-9.53,0-1.84-1.5-3.34-3.34-3.34h-25.35s0-9.8,0-9.8h33.48c1.26,0,2.26-.58,2.83-1.58.41-.55.62-1.55.62-5.5v-4.51c0-1.84-1.55-3.34-3.45-3.34Z"/>
        <path d="M444.64,813.61h-44.96c-1.84,0-3.34,1.5-3.34,3.34v57.27c0,1.9,1.5,3.45,3.34,3.45h8.14c2,0,3.34-1.79,3.34-3.45v-20.95h25.35c1.4,0,2.48-.7,3.07-2.06.23-.7.27-6.27.27-9.53,0-1.84-1.5-3.34-3.34-3.34h-25.35s0-9.8,0-9.8h33.48c1.26,0,2.26-.58,2.83-1.58.41-.55.62-1.55.62-5.5v-4.51c0-1.84-1.55-3.34-3.45-3.34Z"/>
        <path d="M514.85,813.94h-40.57c-1.02,0-1.89.25-2.63.82-.77.77-1.15,1.81-1.15,3.18v56.62c0,1.87,1.53,3.45,3.34,3.45h41.31c1.74-.16,3-1.34,3.15-3.01v-8.57c0-1.84-1.5-3.34-3.34-3.34h-29.38c-.02-.1-.03-.26-.03-.51v-7.78c-.04-.81,0-1.21.06-1.41h24.52c1.74,0,3.04-.59,3.63-1.62.23-.35.48-.98.48-4.03v-4.51c0-.74,0-1.2-.16-1.55-.35-1.56-1.5-2.45-3.18-2.45h-25.3c-.02-.11-.05-.3-.05-.62v-9.69c.12-.03.32-.05.62-.05h29.23c1.52-.17,2.76-1.48,2.91-3.12v-8.57c0-1.78-1.55-3.23-3.45-3.23Z"/>
        <path d="M587.37,813.94h-40.56c-1.02,0-1.89.25-2.63.82-.77.78-1.15,1.81-1.15,3.18v56.62c0,1.87,1.53,3.45,3.34,3.45h41.31c1.74-.16,3-1.34,3.15-3.01v-8.57c0-1.84-1.5-3.34-3.34-3.34h-29.38c-.02-.1-.03-.26-.03-.51v-7.78c-.04-.81,0-1.21.06-1.41h24.52c1.74,0,3.04-.59,3.63-1.62.23-.35.48-.98.48-4.03v-4.51c0-.74,0-1.2-.16-1.55-.35-1.56-1.5-2.45-3.18-2.45h-25.3c-.02-.11-.05-.3-.05-.62v-9.69c.12-.03.32-.05.62-.05h29.23c1.52-.17,2.76-1.48,2.91-3.12v-8.57c0-1.78-1.55-3.23-3.45-3.23Z"/>
      </g>
    </g>
  </g>
</svg>