<?xml version="1.0" encoding="UTF-8" standalone="no"?>
<svg
   id="_Второй_вариант"
   data-name="Второй вариант"
   viewBox="0 0 1723.2249 823.36682"
   version="1.1"
   sodipodi:docname="Основной (упрощенный).svg"
   width="1723.2249"
   height="823.36682"
   xmlns:inkscape="http://www.inkscape.org/namespaces/inkscape"
   xmlns:sodipodi="http://sodipodi.sourceforge.net/DTD/sodipodi-0.dtd"
   xmlns="http://www.w3.org/2000/svg"
   xmlns:svg="http://www.w3.org/2000/svg">
  <defs
     id="defs7" />
  <sodipodi:namedview
     id="namedview7"
     pagecolor="#ffffff"
     bordercolor="#000000"
     borderopacity="0.25"
     inkscape:showpageshadow="2"
     inkscape:pageopacity="0.0"
     inkscape:pagecheckerboard="0"
     inkscape:deskcolor="#d1d1d1">
    <inkscape:page
       x="0"
       y="0"
       width="1723.2249"
       height="823.36682"
       id="page2"
       margin="0"
       bleed="0" />
  </sodipodi:namedview>
  <path
     d="m 597.77486,411.74646 c -0.19,8.82 -0.22,17.65 -0.6,26.47 -0.6,13.97 -1.48,27.93 -2.94,41.84 -2.99,28.52 -7.72,56.75 -14.87,84.54 -7.33,28.46 -16.9,56.11 -29.4,82.74 -11.19,23.83 -24.51,46.37 -40.44,67.35 -10.85,14.3 -22.85,27.58 -36.03,39.76 -18.83,17.4 -39.65,31.97 -62.7,43.28 -21.67,10.63 -44.4,18.01 -68.23,21.95 -8.54,1.41 -17.13,2.38 -25.76,3.05 -5.82,0.45 -11.66,0.65 -17.46,0.64 -28.59,-0.05 -56.54,-4.3 -83.64,-13.66 -29.95,-10.34 -56.91,-25.93 -81.17,-46.23 -26.32,-22.02 -47.849999,-48.13 -65.819999,-77.26 -15.28,-24.77 -27.43,-51.02 -37.18,-78.41 -9.66,-27.13 -16.74,-54.93 -21.81,-83.27 -2.36,-13.2 -4.26,-26.47 -5.72,-39.79 -0.92,-8.35 -1.64,-16.73 -2.22,-25.12 -0.87999995,-12.8 -1.38999995,-25.6 -1.56999995,-38.42 -0.06,-4.32 -0.29,-8.66 -0.19,-12.98 0.25,-10.9 0.46,-21.81 0.98999995,-32.7 0.67,-13.63 1.82,-27.24 3.42,-40.8 4.18,-35.39 11.2,-70.19 22.03,-104.18 8.19,-25.7 18.48,-50.51 31.22,-74.29 12,-22.39 26.11,-43.37 42.699999,-62.640001 17.55,-20.38 37.39,-38.18 59.96,-52.86 27.92,-18.17 58.25,-30.35 91,-36.4599999 10.07,-1.88 20.22,-3.05 30.45,-3.73000004 10.16,-0.67 20.33,-0.74 30.46,-0.24 26.71,1.31000004 52.63,6.61000004 77.64,16.19999994 28.62,10.97 54.3,26.76 77.4,46.85 21.19,18.43 39.23,39.600001 54.79,62.940001 17.08,25.63 30.6,53.06 41.42,81.85 10.13,26.96 17.65,54.65 23.09,82.92 2.85,14.8 5.1,29.7 6.79,44.68 1.33,11.83 2.38,23.68 3.04,35.57 0.49,8.73 0.81,17.46 1.01,26.2 0.11,4.74 0.27,9.49 0.33,14.23 z m -231.93,39.04 c 0.27,15.83 -0.51,31.62 -1.85,47.4 -0.83,9.79 -1.88,19.56 -3.23,29.28 -1.72,12.46 -3.87,24.84 -6.43,37.16 -3.93,18.94 -8.93,37.59 -15.13,55.91 -0.19,0.55 -0.39,1.1 -0.67,1.61 -0.9,1.64 -1.91,2.06 -3.73,1.54 -0.88,-0.25 -1.73,-0.59 -2.59,-0.9 -3.34,-1.24 -4.01,-2.44 -3.27,-5.88 0.99,-4.64 2,-9.28 2.99,-13.92 2.21,-10.34 4.17,-20.73 5.43,-31.24 1,-8.35 1.78,-16.71 2.46,-25.1 0.65,-8.05 1.15,-16.11 1.33,-24.18 0.39,-17.65 0.31,-35.31 -0.92,-52.94 -0.49,-7 -1.28,-13.93 -3.54,-20.61 -1.98,-5.87 -4.42,-11.5 -8.45,-16.32 -1.79,-2.14 -3.89,-3.9 -6.41,-5.08 -3.33,-1.55 -6.5,-0.56 -8.38,2.6 -0.59,0.99 -1.04,2.09 -1.4,3.19 -0.65,1.98 -1.17,3.99 -1.78,5.98 -8.15,26.68 -16.44,53.31 -24.41,80.05 -7.78,26.1 -15.27,52.27 -22.19,78.61 -5.67,21.59 -10.95,43.27 -15.49,65.12 -4.48,21.61 -8.18,43.35 -10.32,65.34 -0.96,9.87 -1.5,19.75 -1.56,29.67 -0.07,10.25 7.33,21.21 19.16,23.81 3.33,0.73 6.69,1.33 10.05,1.92 6.81,1.21 13.68,1.89 20.57,2.39 5.23,0.38 10.49,0.67 15.72,0.49 6.23,-0.22 12.49,-0.19 18.7,-0.89 3.22,-0.36 6.48,-0.57 9.66,-1.19 29.82,-5.79 57.31,-17.28 82.51,-34.21 22.17,-14.89 41.28,-33.11 57.97,-53.9 16.61,-20.69 30.28,-43.2 41.7,-67.13 11.98,-25.12 21.21,-51.22 28.26,-78.11 6.38,-24.36 10.82,-49.09 13.66,-74.11 1.6,-14.15 2.78,-28.34 3.23,-42.56 0.34,-10.89 0.7,-21.79 0.39,-32.71 -0.41,-14.49 -0.95,-28.95 -2.14,-43.39 -0.84,-10.21 -1.91,-20.39 -3.27,-30.54 -2.18,-16.26 -4.96,-32.42 -8.32,-48.48 -3.45,-16.49 -7.63,-32.76 -13.72,-48.5 -7.18,-18.55 -16.11,-36.21 -26.82,-52.96 -14.46,-22.65 -31.17,-43.42 -51.53,-61.1 -2.45,-2.13 -4.88,-4.29 -7.38,-6.37 -1.61,-1.34 -3.35,-2.51 -5.53,-2.68 -2.57,-0.2 -4.15,1.13 -4.35,3.68 -0.15,1.94 0.22,3.8 0.95,5.61 1.19,2.98 3.11,5.5 4.97,8.06 15.37,21.15 28.67,43.52 39.76,67.2 11.49,24.52 20.39,49.93 26.72,76.26 3.63,15.07 6.36,30.31 8.2,45.7 0.92,7.69 1.59,15.4 2.07,23.13 0.62,10.06 0.86,20.13 0.78,30.21 -0.03,3.14 -1.28,4.32 -4.43,4.52 -5.04,0.31 -6.21,-0.67 -6.59,-5.74 -0.83,-11.13 -2.24,-22.19 -4.03,-33.21 -5.43,-33.43 -15.5,-65.42 -29.84,-96.07 -10.66,-22.79 -23.62,-44.2 -38.75,-64.3 -10.38,-13.8 -21.59,-26.88 -33.89,-39.01 -0.89,-0.88 -1.77,-1.78 -2.77,-2.51 -2.02,-1.47 -4.06,-1.27 -5.91,0.41 -1.46,1.33 -1.94,3.07 -2.11,4.93 -0.21,2.28 0.25,4.48 0.86,6.65 1.99,7.04 5.28,13.48 9.21,19.6 10.4,16.2 20.44,32.6 29.45,49.62 15.32,28.92 27.11,59.17 34.25,91.17 3.88,17.42 6.53,35.01 7.73,52.83 0.22,3.32 0.34,6.65 0.59,9.97 0.58,7.64 0.46,15.31 0.56,22.97 0.06,4.56 -0.17,9.15 -0.19,13.73 0,1.08 0.02,2.18 -0.14,3.24 -0.31,1.98 -1.33,2.92 -3.33,3.12 -1.67,0.16 -3.32,-0.05 -4.97,-0.34 -1.19,-0.21 -1.93,-0.93 -2.31,-2.03 -0.3,-0.87 -0.46,-1.77 -0.46,-2.7 0,-4.17 -0.56,-8.3 -0.96,-12.44 -1.42,-14.6 -3.57,-29.08 -6.56,-43.44 -5.26,-25.23 -13.42,-49.48 -24.57,-72.71 -11.4,-23.76 -25.62,-45.75 -41.68,-66.6 -0.71,-0.92 -1.49,-1.81 -2.37,-2.57 -3.28,-2.82 -8.01,-1.34 -9.06,2.82 -0.37,1.45 -0.59,2.93 -0.62,4.44 -0.08,4.11 0.52,8.14 1.3,12.15 2.36,12.06 6.33,23.65 10.74,35.07 8.16,21.16 15.11,42.7 20.68,64.68 4.02,15.83 7.26,31.82 9.7,47.97 1.52,10.04 2.82,20.11 3.63,30.24 0.42,5.23 0.96,10.44 1.31,15.67 0.24,3.65 0.74,7.29 0.57,10.97 -0.14,2.95 -1.4,4.46 -4.34,4.84 -1.48,0.19 -2.99,0.11 -4.49,0.12 -1.53,0.01 -2.54,-0.8 -2.97,-2.21 -0.36,-1.19 -0.63,-2.42 -0.83,-3.65 -0.63,-4.03 -1.18,-8.07 -1.8,-12.1 -1.28,-8.33 -3.47,-16.45 -5.66,-24.57 -8.86,-32.93 -21,-64.6 -36.67,-94.9 -0.54,-1.04 -1.09,-2.06 -1.86,-2.95 -2.37,-2.75 -5.61,-2.96 -8.36,-0.55 -1.76,1.54 -2.73,3.53 -3.38,5.73 -1.22,4.12 -1.55,8.38 -1.43,12.61 0.24,9.17 1.42,18.25 3.25,27.24 1.94,9.55 3.66,19.14 5.12,28.77 1.75,11.52 3.07,23.1 4.09,34.71 0.89,10.2 1.47,20.42 1.79,30.66 0.17,5.41 0.03,10.83 0.03,16.24 z m -325.759999,-38.33 c -0.02,8.66 -0.15,17.31 0.27,25.98 0.52,10.65 1.17,21.27 2.13,31.89 0.74,8.21 1.65,16.4 2.73,24.57 2.48,18.75 5.85,37.33 9.84,55.82 4.8,22.25 12.05,43.64 22.03,64.1 9.97,20.45 22.07,39.54 36.159999,57.39 6.82,8.65 14.1,16.87 21.96,24.58 5.47,5.37 11.28,10.37 17.09,15.36 1.08,0.93 2.22,1.76 3.46,2.45 1.12,0.62 2.32,0.9 3.6,0.82 2.08,-0.13 3.23,-1.15 3.48,-3.21 0.19,-1.58 0.06,-3.15 -0.39,-4.7 -0.72,-2.44 -1.99,-4.57 -3.44,-6.62 -2.94,-4.14 -5.95,-8.24 -8.82,-12.43 -12.84,-18.82 -24.16,-38.51 -33.73,-59.2 -8.48,-18.33 -15.55,-37.18 -21.159999,-56.57 -4.8,-16.58 -8.5,-33.39 -11.16,-50.45 -2.09,-13.42 -3.45,-26.92 -4.16,-40.47 -0.43,-8.23 -0.68,-16.47 -0.55,-24.72 0.08,-4.98 1.29,-6.23 6.27,-6.02 0.66,0.03 1.33,0.13 1.97,0.28 1.25,0.29 2.05,1.09 2.34,2.33 0.19,0.81 0.37,1.63 0.41,2.46 0.2,3.83 0.66,7.63 1.05,11.44 1.13,11.11 2.77,22.14 4.91,33.09 3.729999,19.17 9.019999,37.9 15.759999,56.22 9.47,25.74 21.68,50.11 36.64,73.11 13.9,21.37 29.88,41.06 47.79,59.19 0.99,1 2.07,1.95 3.21,2.78 1.93,1.41 3.91,1.26 5.7,-0.3 1.61,-1.41 2.23,-3.26 2.3,-5.34 0.13,-3.75 -0.93,-7.26 -2.24,-10.69 -2.03,-5.3 -4.67,-10.32 -7.71,-15.11 -4.91,-7.74 -9.85,-15.45 -14.57,-23.31 -11.77,-19.59 -22.46,-39.73 -31.22,-60.85 -6.71,-16.18 -12.17,-32.78 -16.37,-49.79 -3.3,-13.35 -5.8,-26.84 -7.49,-40.5 -1.49,-11.99 -2.49,-24.02 -2.78,-36.09 -0.24,-10.32 -0.1,-20.66 -0.11,-30.99 0,-0.75 0.03,-1.51 0.18,-2.23 0.44,-2.02 1.61,-3.05 3.68,-3.06 1.57,0 3.16,0.18 4.72,0.37 0.98,0.12 1.65,0.77 2.03,1.67 0.36,0.85 0.58,1.75 0.57,2.67 -0.02,2.34 0.28,4.65 0.45,6.97 0.71,9.39 1.86,18.72 3.27,28.02 2.59,17.06 6.22,33.9 11.33,50.4 6.25,20.2 14.45,39.57 24.53,58.15 8.51,15.7 18.28,30.6 28.86,44.97 2.27,3.08 4.5,6.2 7.09,9.04 1.62,1.77 3.59,2.41 5.88,1.76 2.32,-0.65 3.54,-2.27 3.99,-4.64 0.86,-4.51 0.37,-8.97 -0.38,-13.41 -1.87,-11.05 -5.38,-21.65 -9.18,-32.14 -5.1,-14.09 -10.57,-28.05 -14.91,-42.42 -4.89,-16.19 -9.25,-32.52 -12.69,-49.08 -3.29,-15.82 -5.77,-31.77 -7.56,-47.84 -1.17,-10.59 -1.78,-21.23 -2.71,-31.84 -0.13,-1.49 -0.08,-3 0.01,-4.49 0.13,-2.06 1.25,-3.35 3.24,-3.95 1.8,-0.55 3.63,-0.42 5.46,-0.41 1.64,0 2.66,0.9 3.1,2.41 0.32,1.12 0.53,2.27 0.74,3.41 1.11,5.98 1.54,12.06 2.86,18 4.05,18.23 9.24,36.13 15.47,53.74 7.28,20.6 15.79,40.67 25.88,60.06 0.58,1.11 1.2,2.19 2.07,3.11 1.84,1.96 4.12,2.41 6.58,1.28 1.5,-0.68 2.55,-1.82 3.37,-3.23 1.58,-2.73 2.16,-5.74 2.56,-8.81 0.94,-7.35 0.08,-14.63 -0.81,-21.9 -0.86,-7.03 -2.36,-13.95 -3.67,-20.9 -3.47,-18.42 -6.05,-36.96 -7.63,-55.64 -0.87,-10.29 -1.53,-20.59 -1.76,-30.91 -0.36,-16.07 -0.26,-32.14 0.77,-48.2 0.59,-9.14 1.26,-18.27 2.24,-27.37 1.55,-14.32 3.66,-28.57 6.3,-42.73 4.22,-22.63 9.79,-44.9 17.22,-66.7 0.24,-0.71 0.48,-1.43 0.86,-2.07 0.86,-1.46 1.93,-1.88 3.6,-1.46 0.56,0.14 1.1,0.39 1.64,0.59 4.73,1.79 5.08,2.56 4,7.41 -3.88,17.56 -7.49,35.17 -9.22,53.12 -1.26,13.1 -2.38,26.21 -2.73,39.35 -0.52,19.4 -0.35,38.8 1.28,58.16 0.59,7.04 2.07,13.83 4.68,20.37 1.67,4.18 3.68,8.21 6.57,11.72 1.82,2.21 3.9,4.12 6.51,5.35 3.72,1.75 6.89,0.69 8.87,-2.9 0.73,-1.32 1.26,-2.72 1.67,-4.17 0.54,-1.92 1.05,-3.86 1.63,-5.77 7.8,-25.57 15.68,-51.11 23.4,-76.7 10.15,-33.65 19.69,-67.46 28.14,-101.58 6.77,-27.33 12.93,-54.78 17.14,-82.64 1.32,-8.72 2.45,-17.47 3.33,-26.260001 0.53,-5.22 1,-10.45 1.25,-15.68 0.27,-5.56 0.71,-11.14 0.24,-16.71 -0.91,-10.74 -8.74,-19.61 -19.23,-21.92 -10.59,-2.34 -21.32,-3.78 -32.13,-4.33 -10.81,-0.55 -21.65,-0.49 -32.45,0.45 -3.23,0.28 -6.48,0.57 -9.66,1.19 -28.98,5.6 -55.8,16.54 -80.47,32.74 -24.62,16.16 -45.51,36.310001 -63.51,59.530001 -19.68,25.38 -35.029999,53.25 -47.279999,82.87 -7.46,18.03 -13.6,36.52 -18.65,55.36 -5.7,21.26 -9.94,42.81 -12.89,64.62 -1.28,9.49 -2.28,19 -3.14,28.54 -0.85,9.54 -1.37,19.1 -1.74,28.66 -0.28,7.15 -0.06,14.32 -0.06,21.49 z"
     id="path1" />
  <g
     id="g7"
     transform="translate(-133.35514,-588.34354)">
    <path
       d="m 1338.84,937.87 h -23.96 c -2.01,0 -3.88,1.05 -4.93,2.76 l -28.62,46.72 h -17.35 v -43.69 c 0,-3.2 -2.59,-5.79 -5.79,-5.79 h -24.26 c -3.2,0 -5.79,2.59 -5.79,5.79 v 115.77 c 0,3.2 2.59,5.79 5.79,5.79 h 24.26 c 3.2,0 5.79,-2.59 5.79,-5.79 v -42.97 h 16.45 l 27.16,45.91 c 1.04,1.76 2.93,2.84 4.98,2.84 h 26.95 c 4.52,0 7.29,-4.95 4.94,-8.8 l -34.82,-56.96 34.06,-52.65 c 2.49,-3.85 -0.27,-8.93 -4.86,-8.93 z"
       id="path2" />
    <path
       d="m 1500.7,954.15 c -6.31,-6 -13.73,-10.64 -22.28,-13.92 -8.55,-3.27 -17.98,-4.91 -28.29,-4.91 -10.31,0 -19.59,1.64 -28.2,4.91 -8.61,3.27 -16.1,7.91 -22.47,13.92 -6.37,6 -11.31,13.01 -14.83,21.01 -3.52,8 -5.28,16.8 -5.28,26.38 0,9.58 1.76,18.37 5.28,26.38 3.52,8 8.46,15.01 14.83,21.01 6.37,6 13.85,10.64 22.47,13.92 8.61,3.27 18.01,4.91 28.2,4.91 10.19,0 19.74,-1.64 28.29,-4.91 8.55,-3.27 15.98,-7.88 22.28,-13.83 6.3,-5.94 11.25,-12.94 14.83,-21.01 3.58,-8.06 5.37,-16.89 5.37,-26.47 0,-9.58 -1.79,-18.37 -5.37,-26.38 -3.58,-8 -8.52,-15.01 -14.83,-21.01 z m -18.83,62.3 c -1.76,4.49 -4.18,8.34 -7.28,11.55 -3.09,3.21 -6.73,5.67 -10.92,7.37 -4.18,1.7 -8.7,2.55 -13.55,2.55 -4.85,0 -9.37,-0.85 -13.55,-2.55 -4.18,-1.7 -7.82,-4.15 -10.92,-7.37 -3.09,-3.21 -5.52,-7.06 -7.28,-11.55 -1.76,-4.49 -2.64,-9.46 -2.64,-14.92 0,-5.46 0.88,-10.58 2.64,-15.01 1.76,-4.43 4.18,-8.25 7.28,-11.46 3.09,-3.21 6.73,-5.67 10.92,-7.37 4.18,-1.7 8.7,-2.55 13.55,-2.55 4.85,0 9.37,0.85 13.55,2.55 4.18,1.7 7.82,4.16 10.92,7.37 3.09,3.21 5.52,7.03 7.28,11.46 1.76,4.43 2.64,9.43 2.64,15.01 0,5.58 -0.88,10.43 -2.64,14.92 z"
       id="path3" />
    <path
       d="m 1685.28,951.24 c -8.8,-3.4 -19.21,-5.48 -31.2,-6.27 v -7.32 c 0,-3.2 -2.59,-5.79 -5.79,-5.79 h -21.35 c -3.2,0 -5.79,2.59 -5.79,5.79 v 7.38 c -11.63,0.83 -21.82,2.87 -30.56,6.11 -11.76,4.37 -20.65,10.76 -26.65,19.19 -6,8.43 -9.01,18.71 -9.01,30.83 0,12.12 3,22.22 9.01,30.65 6,8.43 14.85,14.83 26.56,19.19 8.74,3.26 18.96,5.3 30.65,6.13 v 8.28 c 0,3.2 2.59,5.79 5.79,5.79 h 21.35 c 3.2,0 5.79,-2.59 5.79,-5.79 v -8.15 c 12.32,-0.71 23.01,-2.81 32.02,-6.35 11.28,-4.43 19.8,-10.85 25.56,-19.28 5.76,-8.43 8.64,-18.58 8.64,-30.47 0,-11.89 -2.97,-22.22 -8.91,-30.65 -5.94,-8.43 -14.64,-14.85 -26.1,-19.28 z m -74.22,75.77 c -6.97,-1.94 -12.25,-5.03 -15.83,-9.28 -3.58,-4.24 -5.37,-9.76 -5.37,-16.55 0,-6.79 1.64,-12.46 4.91,-16.65 3.27,-4.18 8.37,-7.24 15.28,-9.19 3.25,-0.91 6.96,-1.6 11.1,-2.08 v 55.73 c -3.67,-0.48 -7.04,-1.13 -10.1,-1.98 z m 69.58,-9.64 c -3.16,4.25 -8.07,7.4 -14.73,9.46 -3.44,1.06 -7.39,1.85 -11.82,2.36 v -56.05 c 4.36,0.5 8.25,1.26 11.64,2.3 6.55,2 11.46,5.06 14.73,9.19 3.27,4.12 4.91,9.58 4.91,16.37 0,6.79 -1.58,12.13 -4.73,16.37 z"
       id="path4" />
    <path
       d="m 1790,1037.37 v -23.28 h 50.79 c 3.2,0 5.79,-2.59 5.79,-5.79 v -15.35 c 0,-3.2 -2.59,-5.79 -5.79,-5.79 H 1790 v -21.47 h 58.43 c 3.2,0 5.79,-2.59 5.79,-5.79 v -16.26 c 0,-3.2 -2.59,-5.79 -5.79,-5.79 h -88.3 c -3.2,0 -5.79,2.59 -5.79,5.79 v 115.77 c 0,3.2 2.59,5.79 5.79,5.79 h 90.66 c 3.2,0 5.79,-2.59 5.79,-5.79 v -16.26 c 0,-3.2 -2.59,-5.79 -5.79,-5.79 H 1790 Z"
       id="path5" />
    <path
       d="m 1136.37,960.67 c -5.09,-10.31 -12.06,-18.2 -20.9,-23.67 -8.85,-5.47 -18.93,-8.21 -30.26,-8.21 -11.33,0 -21.6,2.74 -30.45,8.21 -8.85,5.47 -15.81,13.36 -20.9,23.67 -5.09,10.31 -7.64,22.84 -7.64,37.6 0,14.76 2.54,27.3 7.64,37.6 5.09,10.31 12.06,18.2 20.9,23.67 8.84,5.47 18.99,8.21 30.45,8.21 11.46,0 21.41,-2.74 30.26,-8.21 8.84,-5.47 15.81,-13.36 20.9,-23.67 5.09,-10.31 7.63,-22.84 7.63,-37.6 0,-14.76 -2.55,-27.3 -7.63,-37.6 z m -25.94,62.66 c -2.48,6.33 -5.88,10.91 -10.2,13.76 -4.33,2.85 -9.32,4.27 -14.97,4.27 -5.65,0 -10.65,-1.42 -14.97,-4.27 -4.33,-2.84 -7.78,-7.43 -10.34,-13.76 -2.56,-6.33 -3.84,-14.68 -3.84,-25.06 0,-10.38 1.28,-18.91 3.84,-25.17 2.56,-6.26 6,-10.8 10.34,-13.65 4.33,-2.84 9.32,-4.27 14.97,-4.27 5.65,0 10.64,1.42 14.97,4.27 4.33,2.85 7.73,7.39 10.2,13.65 2.47,6.26 3.71,14.65 3.71,25.17 0,10.52 -1.24,18.74 -3.71,25.06 z"
       id="path6" />
    <path
       d="m 974.16,1033.92 v -96.67 c 0,-3.2 -2.59,-5.79 -5.79,-5.79 h -45.33 c -3.2,0 -5.79,2.59 -5.79,5.79 v 17.63 c 0,3.2 2.59,5.79 5.79,5.79 h 19.8 v 73.25 h -19.8 c -3.2,0 -5.79,2.59 -5.79,5.79 v 19.59 c 0,3.2 2.59,5.79 5.79,5.79 h 69.81 c 3.2,0 5.79,-2.59 5.79,-5.79 v -19.59 c 0,-3.2 -2.59,-5.79 -5.79,-5.79 h -18.7 z"
       id="path7" />
  </g>
</svg>
