<?xml version="1.0" encoding="UTF-8"?>
<svg id="_Слой_2" data-name="Слой 2" xmlns="http://www.w3.org/2000/svg" viewBox="0 0 1720 790.32">
  <g id="Logos">
    <g>
      <path d="M32.49,589.91c16.79,44.94,39.63,83.7,67.48,114.83,10.44,11.68,21.6,22.28,33.39,31.73,7.87,6.3,16.03,12.09,24.45,17.35,37.92,23.65,81.37,36.51,128.84,36.51s90.9-12.86,128.83-36.51c8.43-5.25,16.59-11.05,24.45-17.35,11.8-9.45,22.95-20.05,33.39-31.73,27.86-31.13,50.69-69.89,67.48-114.83,2.09-5.62,4.1-11.34,6-17.14,5.72-17.43,10.58-35.71,14.5-54.75,7.84-38.08,11.99-79.24,11.99-122.86,0-7.27-.12-14.48-.35-21.61-.68-21.39-2.38-42.14-5.06-62.17-.88-6.68-1.88-13.27-2.98-19.79-2.19-13.03-4.82-25.73-7.84-38.07-1.51-6.17-3.12-12.26-4.84-18.26-11.98-41.95-28.79-79.46-49.75-111.52-2.99-4.58-6.07-9.05-9.23-13.4-6.32-8.72-12.97-16.98-19.93-24.76-3.48-3.88-7.05-7.66-10.68-11.31-7.27-7.3-14.85-14.11-22.72-20.41-3.93-3.15-7.94-6.17-12.02-9.07C387.16,15.87,339.4,0,286.65,0s-100.51,15.87-141.27,44.79c-4.08,2.89-8.08,5.91-12.02,9.07-7.86,6.3-15.44,13.12-22.71,20.41-3.64,3.65-7.19,7.42-10.69,11.31-6.96,7.78-13.61,16.04-19.93,24.76-3.15,4.35-6.24,8.82-9.23,13.4-20.95,32.07-37.77,69.57-49.75,111.52-1.71,6-3.32,12.09-4.83,18.26-3.03,12.34-5.65,25.04-7.85,38.07-1.1,6.52-2.1,13.12-2.98,19.79-2.67,20.04-4.37,40.79-5.06,62.17-.23,7.13-.35,14.33-.35,21.61,0,43.62,4.15,84.78,12,122.86,3.92,19.04,8.77,37.32,14.49,54.75,1.9,5.8,3.91,11.52,6,17.14ZM352.2,286.47c1.43,2.83,2.88,5.65,4.28,8.49,6.11,12.37,11.54,25.14,16.47,38.1,5.19,13.64,9.78,27.58,13.66,41.72,1.91,6.94,3.66,13.92,5.23,20.95.86,3.84,1.9,13.15,2.66,17.01.52,2.59.44,5.47,3.48,5.43,2.59-.05,7.43.16,7.82-3.3.41-3.64-.65-13.43-.9-17.09-.26-3.81-.55-7.63-.91-11.43-1.37-14.59-3.42-29.08-6.09-43.47-4.41-23.71-10.68-46.84-18.24-69.6-1.69-5.06-3.58-10.06-5.45-15.06-4.7-12.6-17.73-45.52-13.51-58.11.78-2.36,3.38-3.59,5.7-3.48,2.9.13,4.52,2.51,6.24,4.73,8.92,11.56,17.26,23.72,24.88,36.3,14.63,24.13,26.13,50.38,33.71,78.06,3.77,13.75,6.59,27.8,8.63,41.97,1.02,7.13,1.86,14.29,2.53,21.47.21,2.23.4,4.47.59,6.71.11,1.53-.09,3.48.37,4.92.65,2.01,2,1.94,3.65,1.94,1.31,0,3.11.38,4.37-.1,2.52-.94,1.64-6.11,1.7-8.3.19-7.74.2-15.49,0-23.24-.38-14.55-1.5-29.09-3.55-43.48-4.25-29.71-12.53-58.63-24.34-85.84-11.39-26.27-25.77-50.84-41.15-74.58-3.3-5.11-16.54-27.36-6.57-32.15,2.74-1.31,4.88.53,6.86,2.51,2.54,2.52,5.03,5.08,7.49,7.68,4.91,5.18,9.66,10.54,14.25,16.05,18.21,21.87,34.06,46.15,46.7,72.21,12.83,26.5,22.51,54.94,28.4,84.17,2.89,14.38,4.84,29.01,6.07,43.66.23,2.58-.05,5.29,2.83,5.57,1.4.13,3.12.12,4.51-.07,3.03-.41,2.44-3.35,2.46-6,.03-3.78,0-7.56-.05-11.34-1.15-60.66-16.95-120.01-44.99-172.54-6.8-12.75-14.28-25.08-22.36-36.93-2.22-3.26-4.48-6.48-6.8-9.66-1.77-2.41-3.61-4.78-4.82-7.6-1.31-3.05-2.48-8.42,1.64-9.66,4.23-1.27,8.89,4.01,11.87,6.52,3.62,3.04,7.15,6.2,10.58,9.47,7.11,6.79,13.82,14.07,20.09,21.76,26.69,32.73,47.6,71.66,57.43,113.68,54.35,232.23-30.45,467.05-204.26,499.53-8.8,1.12-17.78,1.69-26.93,1.69-14.87,0-29.28-1.54-43.19-4.47-11.19-2.36-19.15-12.49-19.11-23.92v-.17c.09-11.82,1.02-23.63,2.39-35.37,3.26-28.05,8.89-55.73,15.36-83.11,13.94-58.86,31.74-116.62,49.48-174.24,1.22-3.96,2.45-7.93,3.67-11.9.97-3.14,1.64-6.82,3.24-9.69,2.04-3.69,5.8-4.31,9.2-2.51,8.02,4.26,12.74,15.74,15.05,24.45,1.85,6.96,2.15,14.23,2.56,21.43.46,7.97.72,15.96.81,23.94.15,15.93-.42,31.87-1.74,47.73-1.08,12.93-2.42,25.96-4.88,38.69-.99,5.14-2.04,10.28-3.11,15.41-.57,2.73-1.13,5.46-1.71,8.19-.36,1.71-1.59,4.56-.3,6.07.88,1.03,2.71,1.38,3.88,1.85,1.4.58,2.81,1.36,4.01-.13.83-1.02,1.15-2.83,1.59-4.1.65-1.82,1.26-3.66,1.86-5.5,4.54-14.06,8.28-28.43,11.39-42.94,13.14-61.18,15.59-125.59,6.6-187.67-1.13-7.83-2.44-15.63-3.9-23.39-1.23-6.51-11.45-49.99,3.15-53.29,3.86-.88,5.86,2.18,7.47,5.39ZM257.96,36.28c8.8-1.11,17.78-1.68,26.93-1.68,14.89,0,29.29,1.54,43.19,4.47,11.19,2.36,19.17,12.49,19.11,23.93v.16c-.09,11.83-1.02,23.64-2.38,35.37-3.26,28.06-8.89,55.74-15.36,83.12-13.94,58.86-31.74,116.61-49.49,174.23-1.22,3.97-2.45,7.93-3.66,11.9-.97,3.15-1.65,6.83-3.24,9.69-2.05,3.68-5.81,4.3-9.21,2.5-8.02-4.26-12.73-15.74-15.05-24.45-1.84-6.96-2.15-14.23-2.56-21.42-.46-7.97-.72-15.96-.8-23.95-.16-15.92.42-31.86,1.74-47.72,1.08-12.94,2.41-25.97,4.87-38.69,1-5.15,2.04-10.28,3.11-15.41.56-2.74,1.12-5.46,1.71-8.19.35-1.71,1.59-4.57.31-6.08-.89-1.03-2.72-1.38-3.89-1.85-1.4-.58-2.8-1.35-4,.13-.83,1.02-1.15,2.84-1.59,4.1-.65,1.82-1.27,3.67-1.86,5.51-4.55,14.06-8.28,28.42-11.39,42.93-13.15,61.18-15.59,125.6-6.6,187.68,1.14,7.82,2.44,15.62,3.9,23.39,1.23,6.5,11.45,49.98-3.15,53.29-3.86.87-5.87-2.19-7.48-5.39-1.42-2.84-2.88-5.65-4.28-8.49-6.11-12.38-11.53-25.15-16.46-38.1-5.2-13.64-9.78-27.57-13.67-41.71-1.91-6.94-3.66-13.92-5.22-20.95-.86-3.85-1.91-13.16-2.67-17.01-.52-2.6-.43-5.48-3.48-5.43-2.59.04-7.42-.16-7.81,3.3-.42,3.63.64,13.42.89,17.08.27,3.82.55,7.64.91,11.43,1.37,14.59,3.42,29.09,6.1,43.46,4.42,23.72,10.67,46.84,18.24,69.6,1.68,5.06,3.57,10.06,5.44,15.06,4.7,12.6,17.73,45.52,13.51,58.12-.78,2.35-3.37,3.59-5.69,3.48-2.91-.13-4.53-2.51-6.24-4.73-8.92-11.55-17.25-23.71-24.88-36.3-14.62-24.14-26.12-50.39-33.7-78.06-3.78-13.76-6.59-27.8-8.63-41.97-1.03-7.13-1.86-14.29-2.54-21.47-.21-2.23-.4-4.47-.58-6.71-.12-1.53.09-3.48-.38-4.92-.64-2.02-2-1.95-3.65-1.95-1.3,0-3.11-.38-4.37.1-2.52.94-1.64,6.11-1.7,8.3-.19,7.74-.2,15.5,0,23.24.38,14.55,1.5,29.09,3.56,43.48,4.25,29.71,12.52,58.63,24.33,85.85,11.4,26.26,25.78,50.83,41.15,74.58,3.31,5.1,16.55,27.36,6.57,32.14-2.74,1.31-4.88-.53-6.87-2.51-2.53-2.52-5.03-5.08-7.49-7.67-4.91-5.19-9.66-10.54-14.25-16.06-18.2-21.87-34.06-46.15-46.69-72.21-12.83-26.5-22.51-54.94-28.4-84.17-2.89-14.38-4.84-29.01-6.08-43.66-.22-2.59.06-5.29-2.83-5.57-1.39-.14-3.12-.13-4.51.06-3.02.42-2.44,3.35-2.46,6-.03,3.78,0,7.56.05,11.34,1.15,60.66,16.96,120.02,45,172.54,6.8,12.75,14.28,25.08,22.35,36.94,2.22,3.26,4.48,6.47,6.8,9.65,1.77,2.42,3.62,4.78,4.82,7.6,1.31,3.04,2.48,8.41-1.64,9.66-4.22,1.28-8.88-4-11.87-6.52-3.61-3.04-7.15-6.19-10.57-9.46-7.12-6.79-13.82-14.07-20.1-21.76-26.69-32.73-47.59-71.68-57.42-113.69C-.65,303.58,84.17,68.76,257.96,36.28Z"/>
      <g>
        <path d="M763.86,424.19h-15.27v-78.94c0-3.18-2.67-5.76-5.95-5.76h-35.25c-3.18,0-5.76,2.58-5.76,5.76v14.21c0,3.18,2.58,5.76,5.76,5.76h15.46s0,59.16,0,59.16h-15.45c-3.23,0-5.76,2.53-5.76,5.76v14.02c0,3.18,2.58,5.76,5.76,5.76h56.47c3.18,0,5.76-2.58,5.76-5.76v-14.02c0-3.28-2.58-5.95-5.76-5.95Z"/>
        <path d="M879.64,352.13c-6.65-7.25-14.5-11.63-23.98-13.37-4.42-.89-9.41-1.19-15.72-.98-5.85.2-10.63,1.01-15.04,2.54-10.23,3.41-17.76,9.34-23.02,18.11-5.23,8.54-8.18,19.31-8.76,32.03-.56,12.13,1.07,23.31,4.84,33.23,4.1,10.73,10.65,18.66,19.47,23.56,7.07,3.95,15.36,5.93,24.7,5.93,1.87,0,3.79-.08,5.75-.24,11.29-.78,20.73-4.48,28.04-11.01h0c7.5-6.72,12.58-16.38,15.09-28.73,2.19-10.75,2.45-21.78.77-32.79-1.95-11.87-6.03-21.39-12.15-28.29ZM865.5,394c.19,5.88-.37,11.27-1.66,16.06-1.21,5.03-3.31,9.24-6.05,12.16-2.94,3.12-6.78,5.06-11.35,5.77-9.9,1.23-17.46-2.6-21.88-11.07-1.57-3.14-2.7-6.78-3.45-11.06-.75-5.61-.93-10.96-.56-16.32.58-6.35,1.74-11.39,3.47-15.04,1.92-4.38,4.68-7.54,8.41-9.67,3.07-1.69,6.64-2.54,10.63-2.54.69,0,1.4.02,2.12.07,4.55.35,8.44,1.94,11.57,4.72h0c2.85,2.52,5.06,6.2,6.72,11.19,1.34,4.6,2.02,9.87,2.02,15.71Z"/>
        <path d="M1063.66,425.81l-12.42-8.84c-1.36-1.11-2.82-1.64-4.24-1.49-.98.09-2.44.56-3.83,2.23-4.25,4.41-9.21,7.29-14.75,8.57l-.67.02c-10.25,2.01-19.61-.72-26.34-7.69-7.55-7.83-10.54-19.97-7.8-31.68,3.4-14,14.18-23.04,27.41-23.04,8.26.18,15.22,3.13,21.33,9.06,2.46,2.22,5.21,2.45,7.53.65l13.46-10.42c1.12-.87,1.81-2.22,1.91-3.68.1-1.57-.47-3.1-1.51-4.14-10.56-11.73-24.78-17.55-42.49-17.39-16.4,0-30.41,5.51-41.67,16.37-11.13,10.93-16.77,24.76-16.77,41.11s5.58,30.5,16.58,41.31c11.06,10.86,24.69,16.37,40.53,16.37,18.52,0,33.58-6.56,44.78-19.49.89-1.02,1.31-2.38,1.17-3.83-.15-1.58-.93-3.02-2.2-4.01Z"/>
        <path d="M1164.69,337.22c-15.51-.79-29.22,3.35-40.56,12.2l-.66.45c-14,10.89-22.03,27.3-22.03,45.03,0,16.29,5.77,30.13,17.17,41.13,11.59,11.01,25.46,16.36,42.4,16.36s31.04-5.57,42.38-16.52c11.09-10.15,17.44-25.28,17.43-41.52,0-15.9-6.15-30.63-16.83-40.39-10.73-10.34-23.95-15.97-39.3-16.74ZM1190.12,394.9c0,15.82-9.97,27.98-24.81,30.26-9.07,1.45-18.05-1.66-24.63-8.59-7.13-7.5-10.06-18.1-7.86-28.35v-.04c2.72-14.3,14.05-23.91,28.19-23.91,8.21,0,15.16,2.95,20.63,8.78,5.7,6.07,8.48,13.21,8.48,21.84Z"/>
        <path d="M1340.58,339.49h-77.5c-3.18,0-5.76,2.58-5.76,5.76v98.72c0,3.28,2.58,5.95,5.76,5.95h14.02c3.45,0,5.76-3.08,5.76-5.95v-36.11h43.7c2.41,0,4.27-1.21,5.3-3.55.4-1.2.46-10.81.46-16.42,0-3.18-2.58-5.76-5.76-5.76h-43.7s0-16.9,0-16.9h57.72c2.18,0,3.9-1,4.87-2.72.71-.95,1.08-2.68,1.08-9.48v-7.77c0-3.18-2.67-5.76-5.95-5.76Z"/>
        <path d="M1468.04,339.49h-77.5c-3.18,0-5.76,2.58-5.76,5.76v98.72c0,3.28,2.58,5.95,5.76,5.95h14.02c3.45,0,5.76-3.08,5.76-5.95v-36.11h43.7c2.41,0,4.27-1.21,5.3-3.55.4-1.2.46-10.81.46-16.42,0-3.18-2.58-5.76-5.76-5.76h-43.7s0-16.9,0-16.9h57.72c2.18,0,3.9-1,4.87-2.72.71-.95,1.08-2.68,1.08-9.48v-7.77c0-3.18-2.67-5.76-5.95-5.76Z"/>
        <path d="M1589.06,340.06h-69.92c-1.75,0-3.26.44-4.54,1.41-1.33,1.33-1.98,3.13-1.98,5.48v97.59c0,3.23,2.64,5.95,5.76,5.95h71.2c2.99-.28,5.17-2.3,5.43-5.19v-14.78c0-3.18-2.59-5.76-5.76-5.76h-50.65c-.03-.17-.06-.45-.06-.87v-13.41c-.07-1.4,0-2.09.1-2.43h42.27c3,0,5.24-1.02,6.25-2.8.4-.61.83-1.69.83-6.94v-7.77c0-1.27,0-2.07-.28-2.67-.6-2.69-2.59-4.23-5.48-4.23h-43.61c-.04-.19-.09-.52-.09-1.06v-16.7c.21-.04.55-.08,1.06-.08h50.39c2.61-.3,4.77-2.55,5.02-5.38v-14.78c0-3.07-2.67-5.57-5.95-5.57Z"/>
        <path d="M1714.05,340.06h-69.92c-1.75,0-3.26.44-4.54,1.41-1.33,1.34-1.98,3.13-1.98,5.48v97.59c0,3.23,2.64,5.95,5.76,5.95h71.2c2.99-.28,5.17-2.3,5.43-5.19v-14.78c0-3.18-2.59-5.76-5.76-5.76h-50.65c-.03-.17-.06-.45-.06-.87v-13.41c-.07-1.4,0-2.09.1-2.43h42.27c3,0,5.24-1.02,6.25-2.8.4-.61.83-1.69.83-6.94v-7.77c0-1.27,0-2.07-.28-2.67-.6-2.69-2.59-4.23-5.48-4.23h-43.61c-.04-.19-.09-.52-.09-1.06v-16.7c.21-.04.55-.08,1.06-.08h50.39c2.61-.3,4.77-2.55,5.02-5.38v-14.78c0-3.07-2.67-5.57-5.95-5.57Z"/>
      </g>
    </g>
  </g>
</svg>